<?xml version="1.0" encoding="UTF-8"?>
<svg version="1.1" xmlns="http://www.w3.org/2000/svg" width="960" height="960">
<path d="M0 0 C316.8 0 633.6 0 960 0 C960 316.8 960 633.6 960 960 C643.2 960 326.4 960 0 960 C0 643.2 0 326.4 0 0 Z " fill="#000000" transform="translate(0,0)"/>
<path d="M0 0 C1.02030304 -0.00018127 1.02030304 -0.00018127 2.06121826 -0.00036621 C13.44914159 0.02835996 24.04056498 1.20623974 35 4.375 C36.21558594 4.69855469 37.43117188 5.02210938 38.68359375 5.35546875 C54.66431693 9.88180075 68.19901982 18.78238384 80 30.375 C80.83402344 31.18453125 81.66804687 31.9940625 82.52734375 32.828125 C103.51411413 54.42930006 110.56949651 84.29892226 110.37356567 113.50642395 C109.95210825 142.23864766 98.31951387 168.34127394 78 188.375 C77.27296875 189.11234375 76.5459375 189.8496875 75.796875 190.609375 C61.94875277 203.82323209 45.39001919 210.55953363 27 214.375 C25.95070313 214.60445312 24.90140625 214.83390625 23.8203125 215.0703125 C-5.22577297 220.54053019 -36.44116124 215.55343734 -61.32666016 199.5234375 C-65.63972159 196.56332064 -69.3153433 193.06575712 -73 189.375 C-73.90234375 188.54355469 -74.8046875 187.71210937 -75.734375 186.85546875 C-88.22227059 175.07476062 -95.0419673 161.28260292 -101 145.375 C-101.27102539 144.6526416 -101.54205078 143.9302832 -101.82128906 143.18603516 C-105.60287919 132.53463517 -106.34909218 122.0564877 -106.31567383 110.84277344 C-106.31252443 108.64206828 -106.33602045 106.44272666 -106.36132812 104.2421875 C-106.42076666 91.29328468 -104.4978773 79.04912043 -99.875 66.875 C-99.5764209 66.0816626 -99.2778418 65.2883252 -98.97021484 64.47094727 C-94.53253563 53.14748806 -88.49762559 43.30149651 -80.04296875 34.5234375 C-77.93919414 32.3810673 -77.93919414 32.3810673 -76.046875 29.87109375 C-58.17773742 8.08029429 -26.95787715 -0.03312185 0 0 Z " fill="#FDFDFC" transform="translate(566,469.625)"/>
<path d="M0 0 C1.64011671 0.04237978 3.27996542 0.09605766 4.91943359 0.15869141 C5.78224945 0.18371735 6.64506531 0.20874329 7.5340271 0.23452759 C10.29570138 0.31684207 13.05667262 0.41338658 15.81787109 0.51025391 C17.68763384 0.56848181 19.55742562 0.62578533 21.42724609 0.68212891 C26.0161937 0.8224378 30.6045605 0.97551225 35.19287109 1.13525391 C35.19249407 1.87240537 35.19211704 2.60955683 35.19172859 3.36904621 C35.18459852 21.34026594 35.21062583 39.31116106 35.27314949 57.28227711 C35.30259404 65.97316045 35.3209879 74.66380012 35.31298828 83.35473633 C35.30604084 90.93348155 35.32021341 98.51184935 35.35930717 106.09050196 C35.37926455 110.10012602 35.38894421 114.10915817 35.37329483 118.11881447 C35.35886953 121.90058625 35.37289302 125.68123235 35.40782356 129.46286011 C35.41946886 131.49680473 35.4017719 133.53085274 35.38288879 135.56474304 C35.52661903 146.21954516 39.08387671 154.85460158 46.48583984 162.63134766 C53.33995777 168.66987261 59.85530783 169.59923495 68.75537109 169.69775391 C69.64168213 169.71249756 70.52799316 169.72724121 71.44116211 169.74243164 C80.44407562 169.60289693 87.72499209 166.52820118 94.19784355 160.24643517 C101.90232332 152.09338818 103.07062496 144.51968986 102.96582031 133.59765625 C102.97400621 132.15775911 102.98481728 130.7178749 102.99803162 129.27801514 C103.02629584 125.39829462 103.01817328 121.519429 103.00316381 117.63966703 C102.99374178 113.57435629 103.01827298 109.50924832 103.03909302 105.44400024 C103.07334882 97.75898943 103.07738335 90.07427653 103.07036793 82.38920462 C103.06386193 73.63451494 103.09133921 64.88003296 103.12157035 56.12540507 C103.18295991 38.12866025 103.20200057 20.13209425 103.19287109 2.13525391 C107.21316067 -0.10983748 110.62802908 -0.05449853 115.13427734 0.12353516 C116.28040749 0.15751656 116.28040749 0.15751656 117.44969177 0.19218445 C119.06110547 0.24203662 120.67236855 0.29698411 122.28344727 0.35668945 C124.7497663 0.44754743 127.21617142 0.52222357 129.68310547 0.59423828 C131.25019362 0.6447217 132.81725253 0.69612281 134.38427734 0.74853516 C135.12182755 0.77152176 135.85937775 0.79450836 136.61927795 0.81819153 C139.70917379 0.93683089 142.24096838 1.15128633 145.19287109 2.13525391 C145.28656312 21.45099049 145.35697165 40.76668056 145.40011978 60.08259773 C145.42069211 69.05253854 145.44871001 78.02233767 145.49462891 86.9921875 C145.53466071 94.8158166 145.56034258 102.63934302 145.56922507 110.4630717 C145.57441234 114.60072545 145.58649125 118.7380856 145.61579132 122.87564468 C145.64321972 126.78104757 145.65126166 130.68603977 145.64530182 134.59152985 C145.64638995 136.01439786 145.65417917 137.4372816 145.66969299 138.86006546 C145.80066318 151.50647298 143.32934011 163.11170318 137.50537109 174.38525391 C137.1643335 175.05363281 136.8232959 175.72201172 136.47192383 176.41064453 C133.23097647 182.49983085 129.17615826 187.36676361 124.19287109 192.13525391 C123.50708984 192.84037109 122.82130859 193.54548828 122.11474609 194.27197266 C108.78587334 207.23059895 87.74385017 213.66261277 69.44287109 213.76025391 C56.0081905 213.51356312 43.03308137 210.6382617 31.19287109 204.13525391 C30.29310547 203.64412109 29.39333984 203.15298828 28.46630859 202.64697266 C12.91501208 193.46951739 1.07084352 178.57463718 -3.80712891 161.13525391 C-4.1473407 160.06363007 -4.48755249 158.99200623 -4.83807373 157.88790894 C-6.41453932 151.49521721 -6.0860224 144.93878427 -6.06591797 138.39746094 C-6.06863146 136.91185841 -6.0721944 135.42625723 -6.07653809 133.94065857 C-6.08561699 129.92662935 -6.08213776 125.91270349 -6.07577991 121.89867258 C-6.07070224 117.6942356 -6.07541575 113.48980722 -6.07855225 109.28536987 C-6.08218433 102.23271093 -6.07741017 95.18009397 -6.06787109 88.12744141 C-6.05696266 79.96799343 -6.06053243 71.80864521 -6.0715239 63.6491996 C-6.0805882 56.64013918 -6.08188704 49.63110883 -6.07664657 42.62204444 C-6.07352539 38.43693839 -6.07312208 34.25187933 -6.07971954 30.06677628 C-6.0854808 26.1383831 -6.08151871 22.21011933 -6.06993103 18.28174019 C-6.06727896 16.83772433 -6.06805881 15.39369765 -6.07245636 13.94968605 C-6.07789085 11.98461919 -6.06987958 10.01952862 -6.06109619 8.05447388 C-6.06034214 6.95318209 -6.05958809 5.8518903 -6.05881119 4.71722603 C-5.6297947 0.31600796 -4.28712256 0.15230639 0 0 Z " fill="#FCFCFB" transform="translate(477.80712890625,208.86474609375)"/>
<path d="M0 0 C1.20109406 0.00197891 1.20109406 0.00197891 2.42645264 0.0039978 C31.77805505 0.12866954 31.77805505 0.12866954 41.46728516 8.02441406 C43.60355728 10.69007832 42.81723468 13.27636246 42.5 16.5625 C42.33757812 18.40134766 42.33757812 18.40134766 42.171875 20.27734375 C41.75 23.625 41.75 23.625 41.25048828 25.54077148 C40.7037495 27.81760513 40.4929157 29.98572557 40.3203125 32.3203125 C40.24683594 33.20074219 40.17335938 34.08117187 40.09765625 34.98828125 C39.94864187 36.83658237 39.80807889 38.68558342 39.67578125 40.53515625 C39.56169922 41.85193359 39.56169922 41.85193359 39.4453125 43.1953125 C39.3527417 44.39824951 39.3527417 44.39824951 39.25830078 45.62548828 C38.75 47.625 38.75 47.625 35.75 49.625 C30.41887807 49.40740319 26.13269519 47.70294667 21.27734375 45.5625 C6.48026534 40.07363011 -13.4269493 42.7962543 -27.55078125 49.09765625 C-43.54901361 57.69645204 -52.65150617 71.7601157 -58.25 88.625 C-62.14047637 101.58627299 -60.96175312 120.37590112 -55.25 132.625 C-54.74082031 133.79933594 -54.23164063 134.97367188 -53.70703125 136.18359375 C-47.52535131 149.86643502 -37.82971732 160.08530643 -23.76171875 165.78125 C-4.94723893 172.10151072 17.1436997 171.72231165 35.21484375 162.94140625 C36.05144531 162.50699219 36.88804687 162.07257813 37.75 161.625 C39.99500075 161.86770278 41.15484992 162.02984992 42.75 163.625 C43.02447913 165.28331923 43.24154036 166.95122041 43.43359375 168.62109375 C43.61825195 170.17280273 43.61825195 170.17280273 43.80664062 171.75585938 C43.93232422 172.84705078 44.05800781 173.93824219 44.1875 175.0625 C44.98257386 181.95734683 45.9195806 188.72244103 47.35083008 195.51489258 C48.06042397 199.26597516 47.87259597 202.82452481 47.75 206.625 C46.491875 206.8725 45.23375 207.12 43.9375 207.375 C40.36329556 208.08271284 36.80027644 208.82925791 33.2421875 209.61328125 C16.17837899 213.35348175 16.17837899 213.35348175 7.75 213.625 C6.79456299 213.66367187 6.79456299 213.66367187 5.81982422 213.703125 C-5.58006055 214.12003507 -16.11342609 213.02261249 -27.25 210.625 C-28.28382813 210.43164062 -29.31765625 210.23828125 -30.3828125 210.0390625 C-53.7734291 205.13149444 -74.58585105 189.31454896 -87.7265625 169.71484375 C-96.28889813 156.24777162 -101.60903346 142.30470074 -104.25 126.625 C-104.50934326 125.46303101 -104.50934326 125.46303101 -104.77392578 124.27758789 C-109.91401154 95.63808444 -102.13648782 65.55131625 -86.25 41.625 C-83.47826826 38.02817164 -80.46045452 34.83015674 -77.25 31.625 C-76.40695312 30.71105469 -75.56390625 29.79710937 -74.6953125 28.85546875 C-65.90546828 19.54332944 -55.98316116 13.70642322 -44.5 8.375 C-43.50214478 7.89897339 -43.50214478 7.89897339 -42.48413086 7.41333008 C-28.86703277 1.37099092 -14.71456709 -0.12746586 0 0 Z " fill="#FDFCFC" transform="translate(386.25,470.375)"/>
<path d="M0 0 C1.0209375 0.31839844 2.041875 0.63679687 3.09375 0.96484375 C19.62769485 6.70150452 30.68237041 17.58007623 38.3503418 33.02734375 C39.28617995 34.99950942 40.15591331 36.98693561 41 39 C41.28842773 39.66749268 41.57685547 40.33498535 41.87402344 41.02270508 C44.48104386 47.77042412 44.53716245 54.39400766 44.5 61.5625 C44.49572998 62.80233643 44.49145996 64.04217285 44.48706055 65.31958008 C44.3068002 75.06446715 43.01473896 83.0943774 39 92 C38.61585938 92.85980469 38.23171875 93.71960938 37.8359375 94.60546875 C29.56621919 110.94800732 15.69190927 119.96468828 -1.1015625 126.140625 C-14.60618264 129.11759537 -31.31132962 128.76237362 -44 123 C-45.27037109 122.50886719 -45.27037109 122.50886719 -46.56640625 122.0078125 C-54.35607622 118.66764103 -60.13636266 112.94669169 -66 107 C-66.68320312 106.32453125 -67.36640625 105.6490625 -68.0703125 104.953125 C-80.42151061 91.10649034 -81.17852838 72.77031236 -80.5546875 55.19140625 C-80.05575653 47.0243063 -78.75258343 40.30661747 -75 33 C-74.33097656 31.63875 -74.33097656 31.63875 -73.6484375 30.25 C-65.98907049 16.21495877 -54.33517074 7.37745785 -40 1 C-39.24460937 0.65582031 -38.48921875 0.31164062 -37.7109375 -0.04296875 C-26.80753784 -4.14619159 -11.01325468 -3.50588607 0 0 Z " fill="#010001" transform="translate(586,515)"/>
<path d="M0 0 C0.88538956 0.00202423 1.77077911 0.00404846 2.68299866 0.00613403 C3.5868782 0.00517731 4.49075775 0.00422058 5.42202759 0.00323486 C7.33787607 0.00255293 9.25372685 0.00440812 11.16957092 0.00857544 C14.10834433 0.01391734 17.04696446 0.00863409 19.98573303 0.00222778 C21.84315525 0.00288868 23.70057736 0.00417009 25.55799866 0.00613403 C26.44136398 0.0041098 27.32472931 0.00208557 28.23486328 0 C34.45699676 0.02399246 34.45699676 0.02399246 36.68690491 1.13894653 C36.75725862 20.64638757 36.81002139 40.15380255 36.84234142 59.66134453 C36.85775288 68.72081643 36.87873175 77.78020911 36.91322327 86.83963013 C36.94330214 94.74386883 36.96252138 102.64805009 36.96917039 110.55234444 C36.97305163 114.73031046 36.9820508 118.9081123 37.00409508 123.08602524 C37.25556823 172.7264821 37.25556823 172.7264821 22.68690491 192.13894653 C22.07588928 192.9755481 21.46487366 193.81214966 20.83534241 194.67410278 C12.72913546 203.97413293 -2.45476939 208.44541912 -14.31309509 210.13894653 C-16.19110366 210.2204305 -18.0715084 210.25688453 -19.95127869 210.25247192 C-21.03194611 210.25239639 -22.11261353 210.25232086 -23.22602844 210.25224304 C-24.37624481 210.24708176 -25.52646118 210.24192047 -26.71153259 210.23660278 C-27.90162933 210.23518784 -29.09172607 210.23377289 -30.31788635 210.23231506 C-34.10798182 210.22673073 -37.89801757 210.21418104 -41.68809509 210.20144653 C-44.26231299 210.19642951 -46.83653181 210.19186696 -49.41075134 210.18777466 C-55.71157394 210.17761859 -62.01226791 210.15803995 -68.31309509 210.13894653 C-68.80809509 189.34894653 -68.80809509 189.34894653 -69.31309509 168.13894653 C-66.07368103 168.10156372 -62.83426697 168.06418091 -59.49668884 168.02566528 C-56.34582415 167.97940273 -53.19507603 167.92818618 -50.04429626 167.87649536 C-47.8611006 167.84332101 -45.67782071 167.81526593 -43.49449158 167.79251099 C-40.34902692 167.7588275 -37.20432885 167.70650377 -34.05918884 167.65066528 C-33.08912399 167.64427536 -32.11905914 167.63788544 -31.11959839 167.63130188 C-24.45856373 167.48805343 -19.04537375 166.87122519 -14.12559509 161.95144653 C-8.46397453 153.16617325 -7.73051656 146.85648714 -7.7830658 136.4770813 C-7.77595958 134.99970085 -7.76709248 133.52232798 -7.75660706 132.04496765 C-7.73309545 128.05367415 -7.73371589 124.06270867 -7.73852181 120.07136273 C-7.73911667 115.89175549 -7.71640496 111.71227793 -7.69595337 107.5327301 C-7.66060215 99.62579508 -7.64453506 91.71895189 -7.6361782 83.81194681 C-7.62318867 72.1857402 -7.58497667 60.5596093 -7.54207897 48.93347836 C-7.53894028 48.08199878 -7.5358016 47.2305192 -7.5325678 46.35323721 C-7.52628858 44.65636311 -7.51994503 42.95948924 -7.5135352 41.26261562 C-7.49543616 36.28361946 -7.4843551 31.30466873 -7.47923815 26.3256427 C-7.47541847 23.23906103 -7.46781118 20.15249599 -7.45943069 17.06592369 C-7.45645992 15.62955096 -7.45523693 14.19317346 -7.45584297 12.75679779 C-7.45650537 10.80451095 -7.45064735 8.85222507 -7.44439697 6.89994812 C-7.44251106 5.25768926 -7.44251106 5.25768926 -7.44058704 3.58225346 C-7.18721401 -1.273489 -4.15926379 0.01610014 0 0 Z " fill="#FCFCFB" transform="translate(390.31309509277344,209.86105346679688)"/>
<path d="M0 0 C5.80240568 -0.02467332 11.60478098 -0.04284724 17.40722656 -0.05493164 C19.38216687 -0.0599681 21.35710343 -0.06679751 23.33203125 -0.07543945 C26.16667605 -0.08753508 29.00127166 -0.0932351 31.8359375 -0.09765625 C32.72243988 -0.10281754 33.60894226 -0.10797882 34.52230835 -0.11329651 C40.77225659 -0.11387171 40.77225659 -0.11387171 43 1 C43.04684335 20.57653787 43.08204906 40.15306427 43.10362434 59.72964668 C43.11391102 68.82059738 43.12792113 77.91151314 43.15087891 87.00244141 C43.17089302 94.93154515 43.18373537 102.86062358 43.18817699 110.78975189 C43.19077086 114.98319949 43.19681241 119.17657468 43.21146011 123.36999893 C43.22517118 127.32785025 43.22919572 131.28560024 43.22621536 135.24347305 C43.22675954 136.68567457 43.23065564 138.12787996 43.23841095 139.57006073 C43.28623402 148.93320172 42.57469118 157.77557012 41 167 C40.67 167 40.34 167 40 167 C40 112.22 40 57.44 40 1 C26.8 1 13.6 1 0 1 C0 0.67 0 0.34 0 0 Z " fill="#C6C0C4" transform="translate(384,210)"/>
<path d="M0 0 C0.33 0 0.66 0 1 0 C1.02312524 9.23997552 1.04091601 18.47994114 1.05181217 27.71993923 C1.05704061 32.00999915 1.06413753 36.30003933 1.07543945 40.59008789 C1.08626975 44.726794 1.09227714 48.86348108 1.09487724 53.00020027 C1.09673124 54.58192304 1.10035136 56.16364471 1.10573006 57.74535942 C1.1129424 59.95322838 1.11399086 62.16101773 1.11352539 64.36889648 C1.115746 65.62798325 1.11796661 66.88707001 1.12025452 68.18431091 C1 71 1 71 0 72 C-0.12350658 73.90160112 -0.17793443 75.8077239 -0.20532227 77.71313477 C-0.22526749 78.9343251 -0.24521271 80.15551544 -0.26576233 81.41371155 C-0.28274791 82.75627513 -0.29962667 84.09884007 -0.31640625 85.44140625 C-0.33696947 86.80761861 -0.35796577 88.17382451 -0.37937927 89.5400238 C-0.43466535 93.14194524 -0.48404563 96.74392471 -0.53222656 100.34594727 C-0.58239403 104.01909572 -0.63810485 107.69215955 -0.69335938 111.36523438 C-0.80102082 118.57675132 -0.90244787 125.78833847 -1 133 C-1.33 133 -1.66 133 -2 133 C-2 91.09 -2 49.18 -2 6 C-1.67 6 -1.34 6 -1 6 C-0.67 4.02 -0.34 2.04 0 0 Z " fill="#100811" transform="translate(515,222)"/>
<path d="M0 0 C13.2 0 26.4 0 40 0 C40 0.33 40 0.66 40 1 C29.11 1 18.22 1 7 1 C6.67 2.32 6.34 3.64 6 5 C5.49266847 6.5877111 4.97154818 8.17107494 4.4375 9.75 C4.03337891 10.94882812 4.03337891 10.94882812 3.62109375 12.171875 C3.41613281 12.77515625 3.21117187 13.3784375 3 14 C3.33 14 3.66 14 4 14 C3.98952637 14.64026123 3.97905273 15.28052246 3.96826172 15.94018555 C3.92655185 18.85591671 3.90062637 21.77158495 3.875 24.6875 C3.85824219 25.69490234 3.84148437 26.70230469 3.82421875 27.74023438 C3.81777344 28.71669922 3.81132812 29.69316406 3.8046875 30.69921875 C3.79421387 31.59471436 3.78374023 32.49020996 3.77294922 33.4128418 C4.02296544 36.26168257 4.81983488 38.40894543 6 41 C3.525 41.495 3.525 41.495 1 42 C0.505 21.21 0.505 21.21 0 0 Z " fill="#F1EFE8" transform="translate(321,378)"/>
<path d="M0 0 C2.02715957 0.01072829 4.05343339 0.00003855 6.08056641 -0.01269531 C13.78391322 0.00242411 21.01541446 0.52999259 28.52978516 2.26074219 C28.52978516 2.59074219 28.52978516 2.92074219 28.52978516 3.26074219 C16.69825753 4.03206413 4.88686954 4.38911567 -6.97021484 4.44824219 C-8.24018311 4.46113281 -9.51015137 4.47402344 -10.81860352 4.48730469 C-12.01332275 4.48859375 -13.20804199 4.48988281 -14.43896484 4.49121094 C-15.50566406 4.49531982 -16.57236328 4.49942871 -17.67138672 4.50366211 C-20.45887124 4.26172674 -22.10064397 3.69966481 -24.47021484 2.26074219 C-16.28846277 0.37627778 -8.38194633 -0.05265296 0 0 Z " fill="#DEDAD7" transform="translate(564.47021484375,469.7392578125)"/>
<path d="M0 0 C0.80469223 -0.0033284 1.60938446 -0.0066568 2.4384613 -0.01008606 C4.13369172 -0.01513283 5.828932 -0.01749508 7.52416992 -0.01733398 C10.11588814 -0.01952685 12.70718475 -0.03772352 15.29882812 -0.05664062 C16.9492173 -0.05957375 18.59960849 -0.06155909 20.25 -0.0625 C21.40949913 -0.07327827 21.40949913 -0.07327827 22.59242249 -0.08427429 C26.39574 -0.06811944 29.33531462 0.02248188 32.55859375 2.16796875 C-9.00755288 3.87101671 -9.00755288 3.87101671 -13.44140625 1.16796875 C-8.96985799 0.05824548 -4.57849172 0.00660858 0 0 Z " fill="#D4D0CB" transform="translate(376.44140625,470.83203125)"/>
<path d="M0 0 C0.89323975 0.00080566 1.78647949 0.00161133 2.70678711 0.00244141 C17.23774363 0.13766242 17.23774363 0.13766242 23.3125 4.1875 C14.19448053 4.25597788 5.11018262 4.05609131 -4 3.6875 C-5.22912109 3.63980469 -6.45824219 3.59210937 -7.72460938 3.54296875 C-10.71233488 3.42671484 -13.69995123 3.30819607 -16.6875 3.1875 C-12.44802628 -1.05197372 -5.64830707 -0.0052188 0 0 Z " fill="#261F24" transform="translate(565.6875,512.8125)"/>
<path d="M0 0 C0.33 0 0.66 0 1 0 C3.95894273 10.03926997 4.30996061 19.89306331 4.3125 30.3125 C4.31765625 31.59914551 4.3228125 32.88579102 4.328125 34.21142578 C4.27628844 41.37135062 3.77329207 48.05198385 2 55 C1.67 55 1.34 55 1 55 C1.33 40.48 1.66 25.96 2 11 C1.34 11 0.68 11 0 11 C0 7.37 0 3.74 0 0 Z " fill="#E5E0DF" transform="translate(672,548)"/>
<path d="M0 0 C2.36094451 3.54141676 2.25726161 5.08101465 2.265625 9.27734375 C2.26820313 10.51291016 2.27078125 11.74847656 2.2734375 13.02148438 C2.26570312 14.31376953 2.25796875 15.60605469 2.25 16.9375 C2.25773438 18.22591797 2.26546875 19.51433594 2.2734375 20.84179688 C2.27085937 22.07865234 2.26828125 23.31550781 2.265625 24.58984375 C2.26336914 25.72284912 2.26111328 26.85585449 2.25878906 28.02319336 C2.00847768 30.90248268 1.49759292 32.56436663 0 35 C-1.51322577 31.97354845 -1.00453618 28.89228139 -0.87890625 25.5859375 C-0.85529526 24.85629791 -0.83168427 24.12665833 -0.80735779 23.37490845 C-0.73070246 21.04140861 -0.64668657 18.70823911 -0.5625 16.375 C-0.50928115 14.79428707 -0.45654074 13.21355795 -0.40429688 11.6328125 C-0.27508487 7.75499862 -0.13927041 3.87746514 0 0 Z " fill="#161419" transform="translate(628,560)"/>
<path d="M0 0 C2.13604308 3.20406462 2.24208908 3.99600747 2.1953125 7.66796875 C2.18886719 8.56064453 2.18242188 9.45332031 2.17578125 10.37304688 C2.15902344 11.30181641 2.14226563 12.23058594 2.125 13.1875 C2.11597656 14.12787109 2.10695313 15.06824219 2.09765625 16.03710938 C2.07409056 18.35832968 2.04119116 20.67903644 2 23 C1.34 23.33 0.68 23.66 0 24 C-1.61770585 20.7645883 -1.14279662 17.23792649 -1.125 13.6875 C-1.12886719 12.92759766 -1.13273438 12.16769531 -1.13671875 11.38476562 C-1.12989371 7.45695562 -0.96449979 3.83503488 0 0 Z " fill="#EEECDD" transform="translate(631,565)"/>
<path d="M0 0 C0.33 0 0.66 0 1 0 C2.77967263 8.04030671 4.43630637 15.71017896 4 24 C3.34 24 2.68 24 2 24 C2 21.03 2 18.06 2 15 C1.34 14.67 0.68 14.34 0 14 C0 9.38 0 4.76 0 0 Z " fill="#C3BCBB" transform="translate(430,653)"/>
<path d="M0 0 C1.07378906 0.40992188 2.14757812 0.81984375 3.25390625 1.2421875 C4.69004776 1.78660716 6.12624887 2.33086961 7.5625 2.875 C8.26697266 3.14441406 8.97144531 3.41382813 9.69726562 3.69140625 C14.08799499 5.35057587 18.46893615 6.77345709 23 8 C23 8.33 23 8.66 23 9 C15.87615459 9.66268329 9.69120815 7.25388064 3 5 C3 4.34 3 3.68 3 3 C2.01 3 1.02 3 0 3 C0 2.01 0 1.02 0 0 Z " fill="#1F141A" transform="translate(508,412)"/>
<path d="M0 0 C6.93 0 13.86 0 21 0 C16.40759628 3.44430279 15.41917119 3.30244958 9.9375 2.8125 C8.09478516 2.66748047 8.09478516 2.66748047 6.21484375 2.51953125 C3 2 3 2 0 0 Z " fill="#E0E0DB" transform="translate(558,642)"/>
<path d="M0 0 C1.98 0 3.96 0 6 0 C5.21681311 3.91593446 3.60820142 7.36406635 2 11 C1.67 11 1.34 11 1 11 C0.67 7.37 0.34 3.74 0 0 Z " fill="#F4F4E4" transform="translate(322,379)"/>
<path d="M0 0 C-0.33 0.66 -0.66 1.32 -1 2 C-1.66 1.67 -2.32 1.34 -3 1 C-3 1.66 -3 2.32 -3 3 C-7.95 3 -12.9 3 -18 3 C-18 2.67 -18 2.34 -18 2 C-11.85221129 0.3722167 -6.35987804 -0.20190089 0 0 Z " fill="#241E21" transform="translate(387,513)"/>
<path d="M0 0 C0.66 0 1.32 0 2 0 C1.67 2.31 1.34 4.62 1 7 C0.34 6.01 -0.32 5.02 -1 4 C-3.02276681 3.49378487 -3.02276681 3.49378487 -5.3515625 3.48828125 C-6.20234375 3.45283203 -7.053125 3.41738281 -7.9296875 3.38085938 C-8.81914062 3.35830078 -9.70859375 3.33574219 -10.625 3.3125 C-11.97078125 3.26125977 -11.97078125 3.26125977 -13.34375 3.20898438 C-15.56237538 3.12637598 -17.7805994 3.05727281 -20 3 C-20 2.67 -20 2.34 -20 2 C-13.4 2 -6.8 2 0 2 C0 1.34 0 0.68 0 0 Z " fill="#0E0C0D" transform="translate(514,207)"/>
<path d="M0 0 C1.03125 0.165 2.0625 0.33 3.125 0.5 C6.48244326 0.93321848 9.62336157 1.08235703 13 1 C9.59648662 3.03219488 6.6767073 3.36891039 2.75 3.625 C1.13351562 3.73714844 1.13351562 3.73714844 -0.515625 3.8515625 C-1.33546875 3.90054687 -2.1553125 3.94953125 -3 4 C-3 3.34 -3 2.68 -3 2 C-2.01 2 -1.02 2 0 2 C0 1.34 0 0.68 0 0 Z " fill="#EBE4EC" transform="translate(373,416)"/>
<path d="M0 0 C0.33 0 0.66 0 1 0 C1.52902569 2.45683118 2.04850809 4.91502126 2.5625 7.375 C2.78969727 8.42300781 2.78969727 8.42300781 3.02148438 9.4921875 C4.11328125 14.7734375 4.11328125 14.7734375 3 17 C2 16 2 16 1.9375 13.4375 C1.958125 12.633125 1.97875 11.82875 2 11 C1.34 11 0.68 11 0 11 C0 7.37 0 3.74 0 0 Z " fill="#C6C0BE" transform="translate(672,548)"/>
<path d="M0 0 C1.32 0 2.64 0 4 0 C5.31626692 3.61973402 6 6.09567131 6 10 C5.34 10 4.68 10 4 10 C2.68 6.7 1.36 3.4 0 0 Z " fill="#F2EDE2" transform="translate(622,544)"/>
<path d="M0 0 C1.97986082 0.11347619 3.95891598 0.2410935 5.9375 0.375 C7.03964844 0.44460938 8.14179688 0.51421875 9.27734375 0.5859375 C10.62505859 0.79089844 10.62505859 0.79089844 12 1 C12.33 1.66 12.66 2.32 13 3 C7.52667068 4.46845421 4.88077452 3.44038726 0 1 C0 0.67 0 0.34 0 0 Z " fill="#2E272D" transform="translate(393,513)"/>
<path d="M0 0 C0.33 0 0.66 0 1 0 C1 3.3 1 6.6 1 10 C0.01 10.495 0.01 10.495 -1 11 C-2.0257259 6.58937864 -2.03684712 4.07369424 0 0 Z " fill="#EBE6DD" transform="translate(287,538)"/>
<path d="M0 0 C2.15377564 2.62198774 3.40072174 4.64404172 4 8 C2.35 8.33 0.7 8.66 -1 9 C-0.67 6.03 -0.34 3.06 0 0 Z " fill="#ECE7DB" transform="translate(323,411)"/>
<path d="M0 0 C0.33 0.66 0.66 1.32 1 2 C-0.125 4 -0.125 4 -2 6 C-5.1875 6.25 -5.1875 6.25 -8 6 C-5.38485683 3.87961365 -2.80362384 1.86908256 0 0 Z " fill="#1F1817" transform="translate(409,406)"/>
<path d="M0 0 C3.3 0.33 6.6 0.66 10 1 C10 1.99 10 2.98 10 4 C6.58978257 3.21302675 3.31114834 2.12880057 0 1 C0 0.67 0 0.34 0 0 Z " fill="#EAE4E5" transform="translate(525,678)"/>
<path d="M0 0 C0.33 1.32 0.66 2.64 1 4 C1.66 4 2.32 4 3 4 C3 4.99 3 5.98 3 7 C1.35 7 -0.3 7 -2 7 C-1.125 2.25 -1.125 2.25 0 0 Z " fill="#E3DEE5" transform="translate(429,671)"/>
<path d="M0 0 C1.65 0 3.3 0 5 0 C5.33 0.99 5.66 1.98 6 3 C4.02 3 2.04 3 0 3 C0 2.01 0 1.02 0 0 Z " fill="#E5E2E4" transform="translate(576,511)"/>
<path d="M0 0 C2.18975773 3.28463659 2.99806563 6.20696275 4 10 C3.01 9.67 2.02 9.34 1 9 C-0.4783226 6.04335481 -0.06032783 3.25770263 0 0 Z " fill="#2D232A" transform="translate(474,370)"/>
<path d="M0 0 C0.33 0 0.66 0 1 0 C1 2.31 1 4.62 1 7 C-0.32 7.33 -1.64 7.66 -3 8 C-2.690625 7.236875 -2.38125 6.47375 -2.0625 5.6875 C-1.32106407 3.81210323 -0.63771783 1.91315348 0 0 Z " fill="#C5B7AE" transform="translate(382,361)"/>
<path d="M0 0 C6.0546875 -0.1953125 6.0546875 -0.1953125 8 0 C8.66 0.66 9.32 1.32 10 2 C5.94568308 3.15837626 3.78187881 2.83691257 0 1 C0 0.67 0 0.34 0 0 Z " fill="#1C181A" transform="translate(549,685)"/>
<path d="M0 0 C0 0.66 0 1.32 0 2 C0.66 2.33 1.32 2.66 2 3 C0.02 3.33 -1.96 3.66 -4 4 C-4.66 3.01 -5.32 2.02 -6 1 C-4 0 -4 0 0 0 Z " fill="#E8E0E2" transform="translate(376,511)"/>
<path d="M0 0 C2.64 0 5.28 0 8 0 C6.875 1.5625 6.875 1.5625 5 3 C1.8125 2.6875 1.8125 2.6875 -1 2 C-0.67 1.34 -0.34 0.68 0 0 Z " fill="#0E0709" transform="translate(325,421)"/>
<path d="M0 0 C2.5 2.3125 2.5 2.3125 5 5 C5 5.99 5 6.98 5 8 C2.5 6.25 2.5 6.25 0 4 C0 2.68 0 1.36 0 0 Z " fill="#25181F" transform="translate(486,393)"/>
</svg>
